<?xml version="1.0" standalone="no"?>
<!DOCTYPE svg PUBLIC "-//W3C//DTD SVG 20010904//EN"
 "http://www.w3.org/TR/2001/REC-SVG-20010904/DTD/svg10.dtd">
<svg version="1.0" xmlns="http://www.w3.org/2000/svg"
 width="700.000000pt" height="700.000000pt" viewBox="0 0 700.000000 700.000000"
 preserveAspectRatio="xMidYMid meet">
<metadata>
Created by potrace 1.11, written by Peter Selinger 2001-2013
</metadata>
<g transform="translate(0.000000,700.000000) scale(0.100000,-0.100000)"
fill="#000000" stroke="none">
<path d="M2320 6765 l-245 -54 -110 15 -110 16 -205 -73 c-204 -71 -205 -72
-289 -143 -202 -170 -257 -211 -425 -309 l-179 -105 -56 14 c-165 40 -211 41
-211 8 0 -9 21 -59 47 -110 26 -52 45 -95 42 -98 -2 -2 -80 -12 -174 -22
l-170 -19 0 -30 c0 -27 5 -31 75 -58 41 -15 78 -32 83 -36 4 -4 -26 -38 -68
-75 -99 -89 -99 -99 4 -157 l78 -44 7 -74 c3 -41 6 -113 6 -161 l0 -86 86
-110 c47 -60 122 -156 167 -213 l81 -105 43 -220 43 -219 101 -134 c56 -73
107 -137 114 -143 7 -6 66 -15 131 -20 64 -6 118 -11 119 -13 1 -1 24 -44 50
-95 26 -51 84 -147 127 -214 69 -103 78 -121 64 -131 -8 -7 -29 -46 -47 -87
-34 -82 -71 -123 -106 -115 -14 3 -73 -25 -185 -89 -192 -110 -595 -369 -620
-398 -14 -15 -15 -24 -7 -40 6 -12 9 -66 7 -135 -3 -116 -3 -116 -33 -137 -53
-37 -122 -115 -145 -163 -47 -99 -37 -241 27 -368 32 -63 120 -172 178 -219
39 -32 45 -43 60 -109 78 -347 201 -578 380 -713 128 -96 309 -164 496 -184
152 -17 149 -15 191 -95 37 -69 44 -98 32 -129 -5 -12 -25 1 -91 59 -77 67
-123 92 -123 66 0 -8 56 -61 178 -167 l34 -29 -9 -95 -8 -94 -65 -18 c-325
-92 -436 -155 -456 -257 -6 -30 -5 -31 30 -31 25 0 36 4 36 15 0 25 67 82 132
113 53 25 294 102 320 102 4 0 8 -52 8 -115 l0 -115 35 0 35 0 0 203 c0 111 4
208 9 215 7 11 11 11 24 -2 8 -9 25 -16 36 -16 28 0 16 29 -27 65 l-33 28 6
73 7 73 -70 133 c-38 73 -117 226 -176 339 l-106 206 0 110 0 111 36 7 c50 9
69 -11 89 -98 22 -91 70 -210 95 -232 43 -39 80 13 45 62 -17 24 -47 104 -42
109 2 2 21 -9 43 -25 21 -16 64 -38 94 -48 30 -10 75 -31 100 -45 53 -32 147
-58 206 -58 41 0 42 -1 53 -45 6 -25 19 -49 27 -52 27 -10 827 156 841 174 7
9 10 26 8 37 -3 12 -45 221 -95 465 -53 266 -94 447 -102 452 -7 5 -22 6 -33
4 -11 -3 -198 -41 -415 -85 -217 -44 -399 -85 -404 -90 -5 -5 -5 -29 1 -60 10
-50 10 -52 -16 -61 -50 -18 -75 -34 -128 -82 -64 -59 -112 -150 -120 -230 -3
-31 -9 -57 -13 -57 -14 0 -91 74 -106 101 -25 49 -82 29 -69 -24 6 -21 3 -25
-27 -30 -18 -4 -43 -9 -55 -13 l-23 -6 0 173 0 174 -70 120 c-38 66 -66 123
-62 126 4 4 68 -3 142 -16 141 -24 170 -21 170 14 0 10 -6 23 -12 28 -12 9
-263 53 -302 53 -9 0 -72 -33 -139 -73 -176 -106 -257 -150 -264 -144 -3 4 -9
86 -13 184 -4 98 -12 187 -16 198 -5 11 -28 45 -51 76 -24 31 -61 93 -84 140
-22 46 -58 104 -79 129 l-38 46 226 145 c280 180 484 297 490 281 6 -20 20
-14 79 30 44 34 62 56 84 105 16 35 32 63 37 63 4 0 31 -15 60 -33 l52 -33
-35 -73 c-19 -40 -35 -77 -35 -83 0 -16 141 -239 154 -243 13 -4 1107 -85
1147 -85 16 0 30 7 33 17 4 9 12 129 18 266 10 224 10 251 -4 261 -9 7 -18 27
-20 46 -2 28 0 35 15 34 79 -4 70 3 159 -134 45 -72 124 -193 174 -269 l92
-139 16 -195 c10 -107 16 -254 15 -328 l-3 -134 62 -152 c48 -119 66 -179 82
-275 12 -68 26 -133 31 -146 7 -18 2 -38 -25 -95 -39 -82 -106 -270 -106 -297
0 -28 32 -33 86 -13 36 14 50 24 52 41 4 26 -3 27 -52 7 -20 -8 -36 -13 -36
-11 0 30 106 293 115 284 2 -2 28 -58 59 -125 l55 -122 -26 -133 -25 -133 51
-114 c28 -63 51 -123 51 -132 0 -36 -25 -75 -88 -140 -48 -50 -63 -72 -60 -90
4 -33 36 -35 78 -4 18 14 37 22 41 18 9 -10 109 -292 109 -308 0 -6 -100 -58
-222 -114 -123 -56 -302 -142 -398 -191 l-175 -89 186 0 c238 -1 430 31 677
112 39 13 72 21 72 17 0 -13 -77 -80 -120 -104 l-45 -26 70 0 c70 0 71 0 112
43 23 23 52 63 65 90 22 42 34 52 112 92 48 24 116 65 152 90 36 25 66 45 67
45 2 0 39 -81 82 -180 l80 -180 38 0 c20 0 37 2 37 5 0 3 -38 91 -85 196 -47
106 -83 194 -81 197 3 3 62 4 132 3 120 -2 128 -3 179 -32 61 -35 57 -22 81
-226 l17 -143 34 0 c39 0 39 -6 18 154 -9 65 -15 122 -13 126 2 5 73 -32 158
-82 377 -221 333 -199 406 -196 l65 3 -320 185 -320 185 -7 38 c-8 45 -30 57
-104 57 -42 0 -65 10 -186 81 -77 45 -218 128 -314 184 -377 219 -475 278
-486 289 -6 6 -24 43 -41 81 l-31 70 26 133 25 133 -31 71 c-18 39 -30 73 -27
76 3 4 575 -315 1190 -663 99 -56 322 -182 495 -280 481 -271 647 -364 739
-417 47 -26 100 -51 118 -54 l33 -6 0 -84 0 -84 40 0 40 0 0 88 0 87 273 63
c149 35 280 66 290 68 12 4 17 16 17 40 0 19 -4 34 -9 34 -9 0 -543 -126 -572
-136 -14 -4 -18 8 -24 77 -5 57 -4 84 4 88 6 4 144 38 306 76 l295 69 0 52 c0
47 -3 53 -22 57 l-23 4 23 2 c15 1 22 7 22 21 0 18 -7 20 -72 21 -150 1 -238
62 -238 163 0 77 111 148 268 171 32 5 42 11 42 26 0 23 -13 23 -102 5 -181
-39 -272 -130 -246 -250 19 -92 96 -161 204 -185 32 -7 67 -16 77 -20 12 -4
-103 -35 -295 -79 -271 -63 -318 -71 -349 -62 -20 6 -164 81 -320 168 -156 87
-590 329 -964 537 -374 208 -835 465 -1025 571 l-344 192 -12 58 c-12 63 -16
74 -89 258 -42 106 -46 124 -41 170 l7 52 142 27 c83 16 177 27 225 27 72 0
85 3 89 18 3 15 94 35 576 130 315 62 577 113 582 112 11 0 506 -208 513 -215
2 -1 -1 -11 -6 -22 -5 -10 -15 -39 -21 -65 -6 -26 -30 -91 -54 -145 -77 -171
-82 -207 -30 -201 20 2 29 11 38 38 7 19 15 34 19 34 4 -1 26 -13 48 -28 22
-14 49 -26 60 -26 18 0 198 -61 728 -247 102 -36 233 -81 291 -101 l105 -35
97 58 97 57 0 44 0 44 -89 -55 c-49 -30 -96 -58 -105 -61 -17 -7 -942 310
-961 329 -7 7 -3 7 10 3 11 -4 226 -77 478 -161 292 -99 464 -152 476 -147 9
4 56 30 104 57 85 49 87 51 87 88 0 20 -3 37 -6 37 -3 0 -48 -25 -99 -55 -52
-30 -102 -55 -112 -54 -10 0 -220 69 -468 152 l-450 152 -3 45 -3 44 41 -47
c46 -52 51 -54 74 -31 22 21 20 28 -16 69 -26 30 -29 38 -17 46 8 5 88 40 179
79 l165 71 290 -101 c160 -56 320 -112 358 -125 l67 -25 0 39 0 38 -237 83
c-131 45 -287 100 -348 122 l-110 39 -38 76 c-21 41 -36 77 -34 80 4 3 606
-173 740 -217 26 -9 27 -8 27 28 l0 37 -628 189 c-345 105 -789 239 -987 299
-198 60 -447 135 -553 167 -107 32 -195 60 -197 62 -2 2 3 84 11 183 18 233
140 1886 156 2118 6 97 15 182 19 189 5 8 62 4 210 -15 700 -89 1928 -247
1947 -251 21 -3 23 0 20 32 l-3 36 -1030 133 c-566 73 -1039 132 -1049 133
-32 0 -8 16 84 53 l85 35 375 -59 c206 -32 447 -70 535 -84 295 -46 997 -155
1001 -155 2 0 4 16 4 35 0 19 -2 35 -4 35 -4 0 -698 108 -1001 155 -88 14
-331 52 -540 85 l-380 59 -70 -29 c-162 -66 -174 -72 -177 -94 -2 -11 -9 -20
-17 -18 -22 5 -50 -8 -55 -26 -3 -9 -15 -143 -26 -297 -93 -1270 -142 -1936
-160 -2160 -8 -101 -8 -132 2 -141 7 -7 241 -81 520 -165 279 -84 505 -155
503 -157 -4 -5 -446 -92 -465 -92 -8 0 -127 47 -263 105 -290 122 -532 194
-737 220 -68 8 -128 15 -132 15 -4 0 8 23 28 50 31 43 46 92 33 104 -2 2 -181
56 -398 121 l-395 116 -131 -7 c-139 -7 -181 3 -102 25 23 7 49 18 57 24 9 7
92 138 184 292 l168 280 -5 140 c-8 201 -47 385 -128 606 l-39 107 27 58 c36
77 38 178 6 239 -12 22 -19 52 -17 65 7 40 -34 100 -81 117 -65 24 -90 26
-123 9 -43 -22 -45 -21 -72 27 -68 121 -235 379 -252 388 -15 8 -17 14 -9 22
20 20 11 46 -26 74 -21 15 -50 37 -65 49 l-27 22 69 57 c84 69 89 91 30 124
-22 12 -42 26 -46 32 -3 5 17 42 46 80 32 45 50 79 48 92 -3 21 -8 22 -146 25
l-142 3 71 105 c78 117 85 148 34 151 -16 1 -140 -23 -275 -52z m-395 -115
c-3 -5 -12 -10 -18 -10 -7 0 -6 4 3 10 19 12 23 12 15 0z m162 -36 c-3 -3 -12
-4 -19 -1 -8 3 -5 6 6 6 11 1 17 -2 13 -5z m490 -266 c-3 -7 -5 -2 -5 12 0 14
2 19 5 13 2 -7 2 -19 0 -25z m116 -407 c23 -16 50 -43 60 -60 l18 -31 -34 0
c-84 0 -163 -43 -196 -107 -13 -25 -15 -112 -2 -131 4 -8 19 -12 32 -10 22 3
24 9 27 60 3 49 7 61 32 82 34 28 93 41 150 31 33 -6 46 -15 68 -48 42 -62
122 -202 122 -213 0 -5 -78 -49 -172 -99 -117 -62 -176 -99 -188 -117 -12 -20
-19 -25 -28 -16 -11 11 -10 11 -213 -70 -86 -34 -100 -37 -120 -26 -13 7 -32
13 -41 14 -20 0 -535 -255 -560 -277 -10 -9 -20 -32 -24 -52 -7 -48 -24 -81
-41 -81 -8 0 -27 -7 -43 -15 -16 -8 -70 -26 -119 -39 l-90 -24 -25 81 c-14 45
-28 95 -32 111 -8 34 -13 36 97 -41 77 -53 115 -65 125 -39 3 8 -13 132 -36
276 -23 143 -40 270 -38 280 2 10 78 76 170 148 l168 129 167 7 c101 4 242 19
357 37 260 40 246 36 246 64 0 29 -1 29 -120 82 -56 25 -89 44 -80 47 28 11
285 74 303 75 10 1 37 -12 60 -28z m-2175 -146 c-3 -3 -9 2 -12 12 -6 14 -5
15 5 6 7 -7 10 -15 7 -18z m2645 -305 c9 -11 23 -20 31 -20 8 0 12 -8 9 -23
-2 -12 9 -51 26 -87 33 -69 38 -117 17 -165 -12 -29 -12 -29 -89 124 -42 84
-77 156 -77 161 0 8 38 28 55 29 6 1 18 -8 28 -19z m-1788 -30 c-3 -5 -12 -10
-18 -10 -7 0 -6 4 3 10 19 12 23 12 15 0z m1731 -195 c41 -82 74 -158 74 -167
0 -24 -82 -84 -142 -104 -74 -24 -173 -16 -227 19 -34 23 -49 45 -91 133 -28
58 -50 110 -48 115 2 6 77 50 168 99 152 82 166 88 179 72 7 -9 47 -84 87
-167z m-1772 109 c3 -8 2 -12 -4 -9 -6 3 -10 10 -10 16 0 14 7 11 14 -7z
m1287 -171 c32 -102 82 -186 148 -252 106 -107 151 -224 121 -315 -15 -45 -73
-95 -136 -116 -44 -15 -49 -20 -49 -46 0 -37 18 -40 86 -15 149 56 212 192
160 343 -11 31 -27 67 -35 81 l-17 24 69 5 c74 5 156 37 216 83 l34 26 32 -88
c73 -201 120 -435 120 -600 l0 -91 -151 -254 c-83 -139 -159 -260 -168 -269
-9 -9 -43 -26 -76 -37 -33 -11 -166 -57 -295 -102 -129 -45 -262 -91 -296
-102 l-61 -21 -157 53 c-139 46 -187 69 -412 194 l-256 143 -34 78 c-19 43
-34 80 -34 82 0 2 21 3 48 3 95 0 148 64 140 168 -5 62 -28 93 -56 76 -14 -9
-16 -23 -13 -73 4 -79 -12 -101 -76 -101 -100 0 -265 90 -321 175 -68 103 -93
226 -58 292 14 27 28 36 103 60 70 22 107 27 183 28 89 0 95 1 98 21 2 17 18
28 63 44 33 13 62 27 65 31 9 15 20 10 32 -16 7 -14 20 -25 31 -25 14 0 29
-18 52 -61 18 -33 45 -69 60 -80 191 -136 492 -55 605 162 24 46 29 66 29 134
0 77 -2 83 -50 170 -27 50 -51 93 -53 96 -1 3 19 14 45 24 145 54 228 89 231
96 8 19 21 7 33 -28z m-2074 -35 c-3 -8 -6 -5 -6 6 -1 11 2 17 5 13 3 -3 4
-12 1 -19z m1693 -67 c0 -5 23 -49 52 -97 75 -128 76 -209 6 -305 l-33 -44 -5
43 c-7 50 -38 96 -68 100 -45 7 -40 -87 8 -142 l29 -33 -37 -20 c-90 -51 -199
-65 -288 -38 -67 20 -97 48 -142 130 -27 51 -44 71 -60 73 -17 3 -21 7 -13 16
6 7 10 30 8 52 l-2 39 255 127 c199 99 258 124 272 117 10 -5 18 -14 18 -18z
m-1632 -46 c-3 -3 -9 2 -12 12 -6 14 -5 15 5 6 7 -7 10 -15 7 -18z m30 0 c-3
-3 -9 2 -12 12 -6 14 -5 15 5 6 7 -7 10 -15 7 -18z m76 -121 c5 -14 4 -15 -9
-4 -17 14 -19 20 -6 20 5 0 12 -7 15 -16z m463 -230 c-3 -3 -12 -4 -19 -1 -8
3 -5 6 6 6 11 1 17 -2 13 -5z m-107 -53 c0 -5 -7 -12 -16 -15 -14 -5 -15 -4
-4 9 14 17 20 19 20 6z m685 -1027 c197 -109 248 -133 388 -180 89 -30 170
-54 181 -54 11 0 101 28 199 62 l179 61 110 -54 110 -54 -6 -155 c-4 -85 -9
-181 -12 -213 l-6 -59 -57 6 c-31 4 -272 22 -536 42 -426 31 -482 37 -496 53
-8 10 -35 51 -59 91 l-43 72 38 79 39 79 -20 24 c-10 14 -46 58 -80 98 -79 96
-172 228 -160 228 3 0 107 -57 231 -126z m1090 -78 c-11 -8 -26 -11 -34 -8
-12 4 -11 7 5 13 34 13 50 11 29 -5z m713 -95 c163 -49 323 -96 355 -105 31
-9 57 -20 57 -24 0 -4 -21 -34 -45 -66 -25 -33 -50 -78 -56 -100 -13 -49 -7
-275 12 -428 7 -59 11 -109 8 -112 -4 -4 -381 23 -386 28 -1 1 -9 85 -18 186
l-16 185 -122 188 c-207 318 -208 321 -189 329 46 18 116 4 400 -81z m566
-316 c188 -24 429 -94 665 -193 154 -65 199 -88 185 -94 -10 -4 -67 -16 -125
-27 -59 -11 -278 -54 -488 -96 -210 -41 -385 -75 -390 -75 -22 0 -51 397 -35
479 6 29 9 31 38 26 17 -3 85 -12 150 -20z m1815 -262 l193 -58 49 -97 c27
-54 49 -102 49 -106 0 -5 -77 -42 -171 -82 -189 -81 -193 -81 -216 -15 -15 44
-40 75 -60 75 -8 0 -26 9 -41 20 -15 11 -112 55 -217 99 -104 43 -210 88 -235
99 l-45 19 55 12 c42 8 411 84 440 90 3 1 92 -25 199 -56z m-5244 -186 c32
-55 31 -60 -5 -74 l-30 -11 0 64 c0 35 2 64 5 64 2 0 16 -20 30 -43z m2838
-124 c-7 -2 -19 -2 -25 0 -7 3 -2 5 12 5 14 0 19 -2 13 -5z m-2740 -55 c20
-29 44 -63 52 -74 12 -17 17 -57 21 -165 l5 -144 -48 51 c-53 55 -173 275
-173 317 0 20 9 28 48 45 26 11 50 21 53 21 3 1 22 -23 42 -51z m4907 10 c0
-24 -3 -67 -6 -95 -6 -50 -9 -53 -34 -53 l-28 0 24 65 c13 36 24 79 24 95 0
17 5 30 10 30 6 0 10 -19 10 -42z m-5097 -111 c27 -62 28 -63 11 -107 -27 -74
-30 -239 -6 -340 l20 -85 -39 45 c-96 109 -139 209 -139 317 0 80 21 132 75
192 21 22 40 41 44 41 3 0 19 -29 34 -63z m5187 22 c0 -10 -6 -19 -14 -19 -8
0 -13 8 -11 18 2 9 4 21 4 25 2 17 21 -5 21 -24z m0 -108 c0 -15 -5 -18 -21
-14 -21 6 -21 7 -4 20 24 17 25 17 25 -6z m-4965 -261 c59 -66 114 -120 124
-120 9 0 34 18 56 40 34 35 160 117 251 163 l32 16 62 -107 62 -107 6 -174 5
-174 -84 6 c-46 3 -124 18 -174 32 -199 57 -343 108 -391 137 l-52 31 -27 101
c-31 112 -41 215 -30 302 l7 57 24 -42 c13 -23 71 -96 129 -161z m4940 170 c3
-6 -1 -7 -9 -4 -18 7 -21 14 -7 14 6 0 13 -4 16 -10z m-2826 -500 c44 -217 79
-395 78 -396 -15 -8 -720 -144 -725 -139 -4 4 -11 25 -17 48 l-10 42 -85 0
c-87 0 -160 18 -160 38 0 23 -18 40 -45 42 -31 4 -61 29 -82 69 l-15 29 39 -7
c22 -5 52 -21 73 -41 46 -44 91 -65 150 -72 58 -7 96 1 104 22 6 17 -81 456
-94 469 -15 15 -77 -3 -127 -38 -65 -45 -106 -123 -107 -207 -1 -55 -2 -60
-21 -55 -11 3 -26 6 -32 6 -20 0 -16 92 6 150 37 97 107 164 204 196 29 9 55
21 58 26 3 5 2 30 -3 55 -6 24 -8 47 -5 49 3 3 166 38 364 78 353 72 358 72
365 52 4 -12 44 -199 87 -416z m1136 -108 c2281 -1270 2157 -1202 2225 -1216
24 -5 25 -9 28 -86 1 -44 -1 -80 -5 -80 -10 0 -61 29 -573 317 -517 292 -1652
931 -1883 1061 -148 83 -169 98 -183 130 -20 47 -34 102 -25 102 3 0 191 -103
416 -228z m-1970 106 c3 -13 11 -53 19 -90 l14 -68 -29 0 c-16 0 -29 -4 -29
-9 0 -13 -57 -34 -75 -27 -18 7 -21 96 -4 129 16 32 71 87 86 87 7 0 15 -10
18 -22z m-1080 -127 c162 -50 260 -71 334 -71 l58 0 6 -67 c4 -38 7 -92 7
-122 0 -45 8 -68 44 -135 24 -45 76 -143 115 -218 l72 -138 -29 0 c-16 0 -69
7 -118 15 -364 63 -580 242 -696 575 -26 75 -68 226 -68 244 0 12 14 9 73 -14
39 -15 131 -46 202 -69z m745 -101 c12 0 44 -60 35 -68 -3 -3 -34 22 -68 57
-60 61 -61 62 -20 37 24 -14 47 -26 53 -26z m393 -58 c7 -33 7 -34 -26 -27
-17 4 -45 15 -60 25 l-28 17 30 12 c16 7 38 22 48 33 17 19 18 19 24 -4 3 -13
9 -38 12 -56z m1846 -601 c64 -37 186 -109 271 -159 85 -49 191 -112 234 -138
79 -47 79 -48 50 -56 -16 -4 -135 -7 -264 -7 -188 1 -239 4 -257 16 -12 8 -48
22 -79 32 l-57 17 -42 118 c-42 118 -42 118 -24 153 10 19 22 47 28 64 5 16
13 29 17 29 3 0 59 -31 123 -69z m172 -447 c-44 -14 -66 -11 -56 7 4 5 27 9
53 8 l47 -1 -44 -14z m-127 -10 c3 -9 6 -46 6 -84 l0 -68 -40 -16 c-71 -28
-153 -54 -255 -80 -121 -30 -330 -68 -353 -64 -18 4 97 62 358 180 191 87 200
92 200 119 0 16 8 20 66 28 7 0 15 -6 18 -15z m206 -55 c-28 -19 -109 -59
-120 -59 -5 0 -10 9 -10 20 0 14 11 22 43 30 23 6 47 13 52 15 6 2 19 4 30 4
17 1 18 -1 5 -10z"/>
<path d="M1673 5499 c-75 -22 -121 -108 -109 -203 7 -59 28 -86 54 -69 13 8
16 22 14 63 -7 132 58 178 175 122 26 -12 35 -13 48 -2 28 23 18 50 -28 70
-55 24 -113 32 -154 19z"/>
<path d="M3006 5205 c-25 -65 40 -177 85 -149 17 10 5 101 -18 132 -24 32 -58
40 -67 17z"/>
<path d="M1215 4526 c-14 -10 -17 -21 -12 -52 8 -47 30 -79 86 -121 39 -30 40
-33 21 -43 -15 -8 -29 -7 -56 5 -43 18 -74 12 -74 -14 0 -33 37 -55 100 -59
56 -4 61 -2 90 27 22 22 38 29 53 26 31 -7 49 8 45 36 -2 16 -11 25 -26 27
-16 2 -27 14 -34 33 -10 30 -43 40 -65 18 -14 -14 -73 54 -73 84 0 22 -16 47
-30 47 -3 0 -14 -6 -25 -14z"/>
<path d="M2221 3906 c-20 -24 4 -52 73 -86 127 -63 297 -47 270 25 -5 12 -21
14 -88 9 -79 -6 -83 -5 -151 30 -79 40 -88 42 -104 22z"/>
<path d="M4931 5643 c-6 -81 -20 -278 -32 -438 -11 -159 -28 -409 -39 -555
-57 -772 -80 -1103 -78 -1105 2 -2 176 -55 388 -120 212 -64 525 -160 695
-212 171 -52 429 -130 575 -174 146 -44 329 -100 408 -125 79 -24 145 -44 148
-44 2 0 4 54 4 119 l0 119 -67 20 c-38 11 -86 25 -108 31 -48 13 -69 25 -64
38 2 5 46 -3 99 -18 52 -15 105 -30 118 -34 l22 -5 0 193 0 193 -136 35 c-117
29 -159 48 -143 64 2 2 60 -12 129 -31 69 -19 131 -34 137 -34 9 0 13 22 13
80 0 63 -3 81 -16 88 -9 5 -14 15 -10 21 4 6 12 9 17 6 5 -4 9 31 9 83 l0 90
-135 32 c-93 22 -135 37 -135 46 0 19 4 18 140 -16 65 -16 121 -30 124 -30 3
0 6 28 6 63 l0 62 -100 24 c-67 16 -100 28 -100 37 0 18 -1 18 95 -6 105 -26
105 -26 105 14 l0 34 -77 17 c-43 9 -171 39 -284 66 -113 27 -209 49 -212 49
-4 0 -7 7 -7 16 0 12 6 15 23 11 56 -13 514 -120 535 -124 l22 -5 0 140 0 140
-37 7 c-106 19 -133 27 -133 41 0 17 10 17 85 -1 89 -21 86 -23 83 42 l-3 57
-79 15 c-48 10 -81 22 -84 30 -5 14 8 14 126 -5 l42 -7 0 86 c0 88 -4 97 -48
97 -38 0 -92 22 -92 37 0 11 6 14 27 8 14 -3 46 -10 70 -14 l43 -8 0 37 c0 43
15 37 -175 71 -232 41 -315 61 -315 76 0 11 9 13 38 9 43 -7 129 -24 191 -37
24 -6 82 -17 130 -25 47 -8 96 -17 109 -21 l22 -5 0 236 c0 130 -1 236 -3 236
-2 0 -397 63 -878 140 -481 77 -930 149 -999 160 -69 11 -137 23 -151 26 l-26
5 -12 -148z m115 32 c10 -39 -3 -75 -26 -75 -26 0 -45 40 -36 74 9 36 53 37
62 1z m110 -20 c13 -51 -19 -92 -50 -66 -18 15 -21 72 -5 88 16 16 49 3 55
-22z m88 2 c12 -9 17 -23 14 -47 -2 -28 -8 -36 -27 -38 -13 -2 -28 2 -32 10
-13 19 -11 62 3 76 15 15 20 15 42 -1z m-105 -202 c74 -14 138 -25 143 -25 4
0 8 -7 8 -15 0 -18 -4 -18 -67 -6 -196 38 -223 45 -223 58 0 7 1 13 3 13 1 0
62 -11 136 -25z m310 -52 c98 -16 118 -24 107 -41 -3 -5 -45 -1 -103 9 -135
26 -143 28 -143 39 0 14 29 13 139 -7z m-219 -158 c129 -25 242 -45 252 -45
11 0 18 -7 18 -20 0 -11 -5 -18 -12 -15 -7 2 -122 25 -255 51 -173 34 -243 51
-243 61 0 7 1 13 3 13 1 0 108 -20 237 -45z m-62 -81 c95 -19 142 -32 142 -41
0 -17 7 -18 -172 18 -116 24 -158 36 -158 47 0 10 7 13 23 9 12 -3 86 -18 165
-33z m505 -3 c81 -16 150 -30 152 -33 2 -2 1 -9 -3 -15 -5 -8 -33 -6 -102 8
-52 10 -119 24 -147 30 -34 7 -53 15 -53 25 0 8 1 14 3 14 1 0 69 -13 150 -29z
m-557 -81 c140 -28 144 -29 144 -40 0 -15 -34 -12 -153 11 -108 22 -171 48
-116 49 15 0 71 -9 125 -20z m1032 0 c53 -11 121 -25 150 -31 33 -7 52 -16 52
-25 0 -17 18 -19 -156 16 -82 16 -152 30 -156 30 -5 0 -8 7 -8 15 0 19 1 19
118 -5z m-556 -96 c165 -33 248 -53 248 -61 0 -19 -14 -17 -279 37 -134 28
-246 50 -248 50 -1 0 -3 7 -3 16 0 11 6 15 18 12 9 -3 128 -27 264 -54z m1085
-40 c81 -15 152 -30 157 -34 27 -25 -16 -23 -164 5 -139 26 -165 34 -168 49
-3 14 0 17 11 13 8 -3 82 -18 164 -33z m-662 -44 c81 -16 150 -30 152 -30 1 0
3 -7 3 -15 0 -19 11 -20 -160 15 -80 17 -146 30 -147 30 -2 0 -3 7 -3 15 0 8
2 15 3 15 2 0 71 -13 152 -30z m-795 -51 c115 -27 120 -29 120 -41 0 -12 -25
-9 -172 22 -78 17 -108 27 -108 38 0 16 18 14 160 -19z m1320 22 c19 -5 52
-12 73 -16 23 -3 37 -11 37 -20 0 -19 -4 -19 -146 10 -11 3 -21 11 -21 20 0
17 9 18 57 6z m53 -116 c52 -11 77 -21 77 -31 0 -8 -1 -14 -3 -14 -10 0 -192
42 -195 45 -9 9 11 25 26 21 10 -2 52 -12 95 -21z m-1425 -80 c59 -14 117 -27
130 -30 12 -3 22 -11 22 -19 0 -11 -22 -8 -107 11 -60 13 -123 26 -140 30 -18
3 -33 12 -33 19 0 18 3 18 128 -11z m1472 -71 c63 -14 124 -27 136 -29 11 -3
21 -11 21 -20 0 -19 1 -19 -99 4 -46 11 -118 27 -160 36 -55 12 -78 21 -78 32
0 16 -11 18 180 -23z m-1165 1 c55 -13 108 -25 118 -25 9 0 17 -7 17 -16 0
-19 -2 -18 -157 17 -62 14 -93 26 -93 35 0 18 -3 18 115 -11z m-332 -16 c125
-28 173 -44 169 -55 -4 -11 -18 -9 -152 22 -129 30 -133 31 -125 44 8 13 1 13
108 -11z m576 -40 c39 -7 61 -17 61 -25 0 -18 -7 -17 -85 2 -44 11 -65 21 -65
31 0 9 6 13 14 10 8 -3 41 -11 75 -18z m899 -144 c86 -19 167 -37 180 -40 12
-3 22 -12 22 -20 0 -19 9 -20 -118 10 -59 14 -141 33 -182 41 -84 18 -93 21
-85 35 9 13 9 13 183 -26z m-1440 -111 c158 -39 232 -62 232 -71 0 -7 -2 -13
-5 -13 -6 0 -417 103 -462 116 -13 3 -23 13 -23 21 0 8 6 12 13 10 6 -3 117
-31 245 -63z m-153 -53 c148 -35 168 -42 157 -53 -16 -16 -272 49 -272 69 0 9
6 12 18 9 9 -3 53 -14 97 -25z m324 -82 c112 -30 141 -42 129 -54 -11 -12
-278 61 -278 76 0 15 26 11 149 -22z m-346 0 c38 -10 51 -29 20 -29 -33 0
-107 27 -111 40 -5 13 1 13 91 -11z m-18 -81 c53 -12 78 -25 70 -38 -3 -4 -35
1 -72 11 -38 10 -71 19 -75 19 -5 0 -8 7 -8 16 0 11 5 14 18 9 9 -3 40 -11 67
-17z m1496 3 c150 -34 222 -56 227 -69 2 -6 -2 -12 -10 -12 -36 1 -312 78
-316 88 -5 16 -1 15 99 -7z m-1463 -137 c53 -15 107 -29 120 -31 12 -3 22 -12
22 -20 0 -9 -7 -12 -17 -9 -10 2 -71 19 -135 37 -81 22 -118 37 -118 47 0 9 6
12 15 8 9 -3 60 -18 113 -32z m1639 -104 c151 -38 276 -70 278 -70 3 0 5 -7 5
-15 0 -8 -3 -15 -7 -15 -5 0 -111 27 -238 60 -126 34 -254 66 -282 72 -33 6
-53 16 -53 24 0 8 5 14 12 14 6 0 135 -31 285 -70z m-1369 30 c23 -7 42 -18
42 -25 0 -18 -134 19 -138 39 -3 13 2 14 25 7 15 -5 47 -14 71 -21z m-310 -1
c20 -8 31 -29 15 -29 -25 1 -98 29 -101 40 -5 13 36 8 86 -11z m1565 -96 c116
-31 177 -51 177 -60 0 -17 10 -19 -194 35 -99 26 -181 53 -184 60 -6 18 9 16
201 -35z m-88 -73 c190 -50 218 -61 202 -76 -5 -5 -314 72 -326 82 -9 8 13 24
27 20 10 -3 53 -15 97 -26z m-1390 -28 c77 -22 171 -50 210 -61 38 -12 71 -21
72 -21 2 0 3 -6 3 -14 0 -16 22 -21 -264 63 -109 33 -204 65 -210 71 -16 18
23 10 189 -38z m478 -52 c76 -21 127 -40 127 -47 0 -7 -3 -13 -8 -13 -6 0
-117 32 -241 69 -26 7 -44 35 -19 29 8 -1 71 -19 141 -38z m-259 -100 c33 -10
99 -30 146 -44 47 -14 119 -35 160 -47 76 -23 98 -34 88 -45 -11 -11 -498 139
-498 154 0 9 7 11 21 7 12 -4 49 -15 83 -25z m1240 -54 c45 -13 111 -32 149
-42 40 -11 67 -24 67 -32 0 -8 -7 -11 -17 -8 -10 3 -52 14 -93 25 -166 44
-204 57 -208 69 -5 17 11 15 102 -12z m333 -112 c-3 -3 -12 -4 -19 -1 -8 3 -5
6 6 6 11 1 17 -2 13 -5z m-326 -80 c68 -20 139 -40 157 -45 17 -6 32 -16 32
-24 0 -11 -7 -12 -32 -4 -32 10 -56 16 -210 60 -49 13 -78 26 -78 35 0 8 1 14
3 14 2 0 59 -16 128 -36z m22 -100 c83 -25 154 -48 156 -50 3 -2 0 -9 -6 -15
-7 -7 -18 -7 -34 0 -13 5 -58 20 -99 31 -70 21 -147 44 -178 55 -12 4 -8 25 4
25 2 0 73 -21 157 -46z"/>
<path d="M5515 2552 c-6 -4 -18 -19 -28 -34 -21 -33 -36 -35 -71 -7 -29 23
-54 22 -70 -3 -8 -13 -5 -22 13 -42 58 -61 134 -59 181 5 18 25 26 47 23 57
-6 16 -22 32 -33 32 -3 0 -10 -4 -15 -8z"/>
<path d="M4468 2280 c-214 -49 -397 -92 -408 -95 -30 -9 -50 -46 -56 -102 -6
-42 -3 -53 17 -76 19 -21 1729 -1055 1840 -1113 65 -33 111 -29 334 29 116 31
264 70 330 87 299 79 450 122 462 132 9 7 13 42 13 124 0 110 -1 114 -25 130
-23 15 -248 122 -860 409 -126 59 -286 134 -354 166 -68 33 -124 59 -126 59
-1 0 -67 31 -146 69 -382 182 -565 264 -598 267 -22 2 -190 -32 -423 -86z
m1437 -456 c544 -256 1001 -472 1014 -480 13 -9 19 -19 15 -24 -17 -16 -967
-330 -998 -330 -24 0 -103 43 -312 171 -539 331 -1001 614 -1259 771 -143 88
-266 165 -273 172 -15 14 -43 7 398 106 124 28 259 59 300 70 41 10 86 16 100
14 13 -3 470 -215 1015 -470z m1051 -602 c-11 -22 -27 -30 -87 -46 -41 -10
-157 -41 -258 -68 -101 -27 -185 -47 -187 -45 -3 3 522 185 539 186 4 1 1 -11
-7 -27z"/>
<path d="M4815 2263 c-36 -9 -38 -21 -7 -37 36 -19 64 -19 112 -2 l35 13 -32
16 c-31 17 -67 20 -108 10z"/>
<path d="M4683 2227 c-24 -5 -43 -13 -43 -17 0 -4 29 -23 64 -41 58 -30 67
-32 110 -23 26 5 48 14 48 19 2 9 -118 75 -132 73 -3 0 -24 -5 -47 -11z"/>
<path d="M4923 2209 c-43 -12 -42 -23 4 -41 28 -12 46 -13 77 -5 57 14 63 22
25 41 -36 18 -58 19 -106 5z"/>
<path d="M4538 2188 c-21 -5 -38 -13 -38 -17 0 -10 183 -111 200 -111 23 0 90
23 90 31 0 9 -166 98 -195 103 -11 3 -37 0 -57 -6z"/>
<path d="M5043 2157 c-24 -5 -43 -13 -43 -17 0 -9 67 -40 88 -40 26 0 92 20
92 28 0 7 -80 43 -90 41 -3 -1 -24 -6 -47 -12z"/>
<path d="M4388 2148 c-21 -6 -38 -13 -38 -17 0 -10 116 -71 136 -71 33 0 95
21 89 30 -9 15 -114 70 -132 69 -10 -1 -35 -6 -55 -11z"/>
<path d="M4848 2137 c-21 -6 -38 -14 -38 -18 0 -8 63 -39 82 -39 24 0 88 21
88 29 0 9 -66 41 -83 40 -7 -1 -29 -6 -49 -12z"/>
<path d="M4243 2109 c-18 -5 -33 -13 -33 -18 0 -4 21 -19 48 -33 42 -23 51
-24 90 -14 24 6 44 16 44 21 2 14 -72 55 -97 54 -11 0 -35 -5 -52 -10z"/>
<path d="M5158 2098 c-21 -6 -38 -13 -38 -17 0 -4 19 -16 43 -27 39 -19 46
-19 90 -7 26 8 47 18 47 22 0 10 -67 41 -88 40 -9 -1 -34 -6 -54 -11z"/>
<path d="M4958 2078 c-21 -6 -38 -13 -38 -17 0 -10 66 -41 87 -41 23 0 93 22
93 30 0 10 -68 40 -88 39 -9 -1 -34 -6 -54 -11z"/>
<path d="M4575 2063 c-11 -3 -31 -10 -44 -15 l-25 -9 30 -19 c33 -22 73 -24
123 -6 l34 12 -37 22 c-38 22 -45 24 -81 15z"/>
<path d="M4762 2059 c-37 -11 -35 -22 10 -45 27 -14 39 -15 85 -4 29 6 53 15
53 19 0 12 -68 41 -93 40 -12 0 -37 -5 -55 -10z"/>
<path d="M4382 2037 c-24 -7 -43 -16 -43 -21 0 -4 14 -17 32 -28 25 -16 43
-19 77 -14 75 10 81 20 30 50 -25 14 -47 26 -49 25 -2 -1 -23 -6 -47 -12z"/>
<path d="M5283 2037 c-24 -5 -43 -13 -43 -18 0 -4 21 -17 47 -29 41 -18 51
-19 91 -8 25 7 47 18 49 23 3 10 -73 46 -92 44 -6 -1 -29 -6 -52 -12z"/>
<path d="M5078 2018 c-21 -6 -38 -13 -38 -17 0 -4 20 -17 44 -28 41 -20 46
-21 95 -7 28 9 51 17 51 20 0 8 -80 44 -97 43 -10 -1 -35 -6 -55 -11z"/>
<path d="M4663 1997 c-24 -5 -43 -14 -43 -18 0 -5 18 -18 41 -29 39 -20 42
-20 90 -5 27 9 49 18 49 20 0 8 -69 45 -81 44 -8 -1 -33 -6 -56 -12z"/>
<path d="M4878 1998 c-21 -6 -38 -13 -38 -17 0 -5 18 -16 39 -26 29 -13 52
-16 83 -11 69 10 77 21 37 45 -37 23 -63 25 -121 9z"/>
<path d="M5418 1974 c-27 -8 -48 -17 -48 -19 0 -10 80 -45 102 -45 33 0 98 19
98 29 0 7 -92 52 -102 50 -2 0 -24 -7 -50 -15z"/>
<path d="M4487 1967 c-45 -13 -43 -25 10 -54 38 -22 42 -22 91 -8 29 9 52 18
52 20 0 8 -87 55 -101 54 -8 -1 -31 -6 -52 -12z"/>
<path d="M5208 1954 c-27 -8 -48 -17 -48 -19 0 -9 80 -45 101 -45 28 0 99 21
99 30 0 7 -86 50 -98 49 -4 0 -28 -7 -54 -15z"/>
<path d="M4778 1934 c-27 -8 -48 -18 -48 -22 0 -11 66 -42 88 -42 30 0 92 21
92 30 0 8 -73 52 -82 49 -2 0 -24 -7 -50 -15z"/>
<path d="M5013 1937 c-23 -7 -45 -15 -48 -19 -8 -8 67 -48 91 -48 27 0 94 22
94 31 0 9 -74 50 -87 48 -4 -1 -27 -6 -50 -12z"/>
<path d="M5558 1906 c-20 -6 -40 -14 -44 -18 -8 -9 94 -58 110 -53 6 2 30 9
54 15 23 6 42 15 42 19 0 10 -93 51 -112 50 -7 -1 -30 -6 -50 -13z"/>
<path d="M4610 1892 l-54 -17 308 -189 309 -188 63 17 c35 9 64 20 64 24 0 3
-17 15 -38 27 -20 11 -158 91 -305 178 -148 86 -274 159 -280 161 -7 2 -37 -4
-67 -13z m270 -151 c306 -179 321 -189 312 -195 -7 -4 -77 36 -347 202 -49 30
-109 66 -132 79 -24 14 -43 27 -43 30 0 7 2 6 210 -116z"/>
<path d="M5338 1887 c-21 -6 -38 -14 -38 -19 0 -12 76 -48 101 -48 28 0 99 21
99 30 0 10 -89 50 -108 49 -9 -1 -34 -6 -54 -12z"/>
<path d="M4900 1868 c-19 -5 -39 -13 -44 -18 -12 -11 52 -50 83 -50 30 0 101
21 101 30 0 9 -75 50 -91 49 -8 0 -30 -5 -49 -11z"/>
<path d="M5128 1867 c-21 -6 -38 -14 -38 -18 0 -13 66 -49 89 -49 31 0 111 21
111 29 0 11 -88 51 -108 50 -9 -1 -34 -6 -54 -12z"/>
<path d="M5706 1837 c-22 -7 -41 -17 -43 -23 -2 -6 19 -21 47 -34 47 -22 55
-23 98 -11 26 7 51 16 56 21 9 9 -83 61 -106 59 -7 0 -31 -6 -52 -12z"/>
<path d="M5486 1817 c-22 -7 -41 -17 -43 -23 -2 -6 19 -21 45 -33 48 -23 51
-23 106 -7 31 9 56 19 56 21 0 8 -98 55 -112 54 -7 0 -31 -6 -52 -12z"/>
<path d="M5015 1796 c-22 -7 -40 -17 -40 -22 1 -5 20 -20 43 -33 41 -22 46
-23 95 -9 28 8 52 19 54 24 4 11 -76 55 -97 53 -8 -1 -33 -7 -55 -13z"/>
<path d="M5265 1796 c-22 -7 -40 -17 -40 -22 0 -4 18 -19 40 -31 42 -25 77
-24 139 1 l30 12 -48 27 c-53 30 -62 31 -121 13z"/>
<path d="M5848 1758 c-21 -6 -38 -13 -38 -17 0 -4 23 -20 51 -36 49 -26 55
-27 103 -16 82 19 86 26 28 55 -54 27 -83 30 -144 14z"/>
<path d="M5623 1737 c-17 -7 -34 -15 -38 -18 -3 -3 19 -19 48 -34 53 -28 55
-28 107 -14 30 9 55 20 57 25 5 14 -82 54 -115 53 -15 0 -41 -6 -59 -12z"/>
<path d="M5143 1719 c-48 -14 -47 -24 7 -53 50 -27 50 -27 105 -11 30 8 55 19
55 23 0 5 -17 18 -39 30 -41 23 -75 26 -128 11z"/>
<path d="M5398 1718 c-21 -6 -38 -14 -38 -18 0 -5 21 -20 48 -35 44 -25 51
-26 97 -16 80 18 84 25 33 55 -47 27 -78 30 -140 14z"/>
<path d="M6018 1678 c-21 -6 -38 -16 -38 -23 0 -14 88 -55 119 -55 32 0 111
23 111 33 0 13 -102 57 -130 56 -14 -1 -42 -6 -62 -11z"/>
<path d="M5783 1657 c-17 -7 -35 -15 -38 -19 -9 -9 88 -58 115 -58 30 0 110
23 110 32 0 14 -98 58 -127 57 -15 0 -42 -6 -60 -12z m84 -33 c-3 -3 -12 -4
-19 -1 -8 3 -5 6 6 6 11 1 17 -2 13 -5z"/>
<path d="M5293 1642 c-29 -8 -53 -18 -53 -21 0 -10 90 -61 108 -61 28 0 106
26 109 36 3 8 -101 67 -110 63 -1 -1 -26 -8 -54 -17z"/>
<path d="M5548 1638 c-21 -6 -38 -14 -38 -19 0 -13 84 -59 109 -59 39 0 111
22 111 34 0 17 -85 56 -118 55 -15 -1 -44 -6 -64 -11z"/>
<path d="M6198 1594 c-27 -8 -48 -18 -48 -22 0 -5 27 -21 60 -37 58 -28 63
-28 117 -17 84 17 86 27 12 62 -72 34 -76 34 -141 14z m82 -34 c13 -8 13 -10
-2 -10 -9 0 -20 5 -23 10 -8 13 5 13 25 0z"/>
<path d="M5953 1573 c-24 -8 -43 -19 -43 -24 0 -5 25 -21 55 -36 52 -26 58
-27 112 -15 31 6 61 16 66 21 11 11 -102 71 -130 70 -10 0 -37 -7 -60 -16z
m82 -33 c3 -5 -1 -10 -9 -10 -9 0 -16 5 -16 10 0 6 4 10 9 10 6 0 13 -4 16
-10z"/>
<path d="M5436 1556 c-22 -7 -41 -17 -43 -22 -2 -5 20 -22 49 -38 49 -28 53
-28 102 -16 83 21 85 24 30 59 -53 33 -77 36 -138 17z m84 -36 c0 -5 -7 -10
-15 -10 -8 0 -15 5 -15 10 0 6 7 10 15 10 8 0 15 -4 15 -10z"/>
<path d="M5718 1554 c-27 -8 -48 -19 -48 -23 0 -17 92 -61 124 -60 37 1 99 22
103 35 3 10 -99 64 -120 63 -6 0 -33 -7 -59 -15z m82 -40 c0 -2 -7 -4 -15 -4
-8 0 -15 4 -15 10 0 5 7 7 15 4 8 -4 15 -8 15 -10z"/>
<path d="M6375 1501 l-50 -18 25 -16 c14 -8 99 -52 190 -96 l165 -81 60 19
c32 10 60 22 62 27 4 11 -360 184 -384 183 -10 0 -40 -8 -68 -18z m221 -91
c80 -38 130 -66 120 -68 -21 -4 -276 118 -276 131 0 11 -9 14 156 -63z"/>
<path d="M5261 1496 c-19 -7 -36 -17 -38 -22 -3 -10 119 -84 140 -84 26 0 117
31 117 40 0 15 -127 80 -157 79 -15 0 -43 -6 -62 -13z m105 -40 c29 -21 10
-30 -25 -11 -17 8 -31 18 -31 20 0 11 37 4 56 -9z"/>
<path d="M6128 1482 c-27 -8 -48 -19 -48 -24 0 -11 115 -68 138 -68 28 0 112
31 112 41 0 12 -115 69 -137 68 -10 0 -39 -8 -65 -17z m92 -32 c8 -5 12 -12 9
-15 -8 -8 -39 5 -39 16 0 11 11 11 30 -1z"/>
<path d="M5596 1467 c-22 -7 -41 -17 -43 -22 -4 -14 83 -65 112 -65 39 0 115
23 115 35 0 15 -94 65 -121 64 -13 0 -42 -6 -63 -12z m89 -37 c3 -5 -3 -10
-14 -10 -11 0 -23 5 -26 10 -3 6 3 10 14 10 11 0 23 -4 26 -10z"/>
<path d="M5891 1464 c-25 -8 -49 -18 -53 -22 -9 -9 100 -72 124 -72 28 0 118
31 118 40 0 11 -114 70 -132 69 -7 -1 -33 -7 -57 -15z m79 -34 c8 -5 12 -12 8
-15 -10 -10 -49 5 -43 16 8 11 16 11 35 -1z"/>
<path d="M5452 1383 c-24 -8 -41 -20 -39 -26 1 -5 27 -24 56 -40 l52 -30 56
17 c31 8 61 20 66 25 12 12 -93 71 -124 70 -13 0 -43 -7 -67 -16z m93 -32 c3
-5 1 -12 -4 -15 -12 -8 -41 3 -41 15 0 12 37 12 45 0z"/>
<path d="M6321 1382 c-24 -9 -46 -21 -48 -27 -1 -5 48 -36 110 -68 l112 -57
68 22 c37 12 67 25 67 29 0 15 -207 119 -236 118 -16 0 -49 -8 -73 -17z m144
-54 c68 -34 77 -43 48 -50 -21 -4 -157 65 -147 75 13 13 33 7 99 -25z"/>
<path d="M5768 1372 c-27 -9 -48 -21 -48 -27 0 -12 379 -234 400 -234 23 -1
131 34 133 43 3 10 -403 235 -423 235 -8 0 -36 -8 -62 -17z m241 -122 c116
-65 148 -86 135 -93 -12 -7 -55 14 -167 78 -166 95 -187 110 -146 103 15 -3
95 -42 178 -88z"/>
<path d="M6062 1368 c-29 -12 -51 -26 -49 -32 2 -6 67 -46 145 -89 l142 -78
53 15 c65 20 85 32 72 45 -17 16 -269 151 -290 155 -11 2 -44 -5 -73 -16z
m174 -79 c101 -55 113 -64 86 -71 -17 -5 -221 101 -222 115 0 19 49 3 136 -44z"/>
<path d="M5593 1273 c-25 -9 -13 -30 30 -51 43 -22 87 -20 87 2 0 14 -71 56
-91 55 -8 0 -20 -3 -26 -6z"/>
<path d="M5777 1216 c-8 -8 -20 -14 -28 -14 -59 3 -65 -17 -14 -49 40 -26 93
-30 101 -8 4 8 10 12 15 9 13 -8 69 6 69 16 0 14 -84 60 -108 60 -11 0 -27 -6
-35 -14z"/>
<path d="M5835 1116 c-17 -12 -15 -15 27 -40 46 -27 82 -32 108 -16 17 11 18
10 -41 44 -52 30 -67 32 -94 12z"/>
<path d="M2054 37 c-3 -9 -3 -21 1 -27 4 -6 96 -10 273 -9 l267 2 -135 17
c-74 10 -195 21 -267 25 -117 7 -133 6 -139 -8z"/>
</g>
</svg>
